<?xml version="1.0" standalone="no"?>
<!DOCTYPE svg PUBLIC "-//W3C//DTD SVG 20010904//EN" "http://www.w3.org/TR/2001/REC-SVG-20010904/DTD/svg10.dtd">
<!-- Created using Krita: https://krita.org -->
<svg xmlns="http://www.w3.org/2000/svg" 
    xmlns:xlink="http://www.w3.org/1999/xlink"
    xmlns:krita="http://krita.org/namespaces/svg/krita"
    xmlns:sodipodi="http://sodipodi.sourceforge.net/DTD/sodipodi-0.dtd"
    width="72pt"
    height="72pt"
    viewBox="0 0 72 72">
<defs/>
<path id="shape0" transform="matrix(1.62184384841609 0 0 1.62184384841609 16.0947180990346 13.0868159866815)" fill="#48226d" fill-rule="evenodd" stroke="#000000" stroke-opacity="0" stroke-width="0" stroke-linecap="square" stroke-linejoin="bevel" d="M0 17.2212C4.45999 28.4371 7.08271 34.2716 7.86816 34.7249C8.65361 35.1781 16.293 35.6397 30.7862 36.1095L33.7573 34.499C33.286 27.581 29.3903 23.5874 22.0703 22.5182C22.0959 22.3872 23.9059 19.8828 27.5001 15.0051C28.4137 13.2358 27.9535 12.0907 26.1196 11.5697C25.9953 11.442 25.6651 11.3519 25.1289 11.2992C27.2474 6.9276 24.388 4.09579 16.5509 2.80374L14.4562 4.59951L11.1189 0.605907C9.95438 -0.386469 9.03148 -0.159834 8.35019 1.28581C7.6689 2.73146 4.8855 8.04327 0 17.2212Z"/><path id="shape0" transform="translate(27.714155265424, 15.8964004585262)" fill="#220033" fill-rule="evenodd" d="M1.65665 0L6.77073 7.26416C7.7458 8.86232 7.79332 11.8241 6.77073 13.1702L5.38939 14.5515L3.66314 8.10909L0.000693034 3.25362C-0.0223582 3.24308 0.529627 2.15854 1.65665 0Z"/><path id="shape1" transform="matrix(1.62184384841609 0 0 1.62184384841609 2.96798990608685 0.349162849550885)" fill="#8121a6" fill-rule="evenodd" stroke="#000000" stroke-opacity="0" stroke-width="0" stroke-linecap="square" stroke-linejoin="bevel" d="M9.46363 18.38C12.1417 21.9131 14.7815 22.4665 17.383 20.0403C19.9845 17.6141 19.3792 14.7085 15.5671 11.3235C10.0887 6.29589 6.14093 2.5214 3.72387 0C3.78278 0.146824 -0.271681 4.89939 7.26864 10.7904C7.24303 10.6729 4.8585 10.1466 0.322529 8.71454C0.214957 8.70325 -2.15676 14.6914 7.78089 15.3306C7.78943 15.1017 5.34685 15.6416 0.453153 16.9502C0.764156 19.2775 2.59137 20.7514 9.46363 18.38Z"/><path id="shape1" transform="translate(18.2845549874843, 23.7392375571077)" fill="#480075" fill-rule="evenodd" d="M0 3.00086L4.34823 1.83575L8.01159 3.49667L8.47902 7.28246L7.88294 9.50706L7.22842 10.1616C7.71995 10.1918 8.22186 10.2035 9.02548 9.68006C9.49663 9.21923 9.83064 8.54732 10.1132 7.79615C10.3097 6.97526 10.3049 5.87454 10.1132 4.62877C9.81723 3.53991 9.50986 2.75547 8.44416 1.738C7.73183 1.05184 6.75477 0.430311 4.80491 0.046317C4.12428 -0.0541811 3.3898 0.0210198 2.63715 0.15554C1.98018 0.317161 1.38337 0.670632 0.836248 1.18251C0.203931 2.1765 0.27864 2.39486 0 3.00086Z"/><path id="shape2" transform="translate(21.500641803334, 28.7195647410805)" fill="#480075" fill-rule="evenodd" d="M0 0.53407C0.201903 0.304598 0.50168 0.0534771 0.898093 0.015556C1.29101 -0.0301032 1.75988 0.00930438 2.128 0.34511C2.40752 0.761382 2.49324 1.16953 2.472 1.62893C2.40775 2.00121 2.41738 2.32548 2.4725 2.60301C2.57087 2.97342 2.83493 3.23642 3.20982 3.26626C3.47195 3.29722 3.6473 3.26855 3.82433 3.28946L2.43035 3.6344L1.57423 3.14013L1.04307 1.89162L1.04307 0.935792C0.95556 0.891601 0.60787 0.757694 0 0.53407Z"/><path id="shape3" transform="translate(3.16143805582202, 15.5192796373489)" fill="#480075" fill-rule="evenodd" d="M0.106904 1.04619L10.037 4.85238C10.2565 4.71416 10.4067 4.51338 10.4201 4.18889C10.4215 3.80085 10.2402 3.37635 9.96677 3.25463L0.0525716 0C-0.0324544 0.433576 -0.0143436 0.782305 0.106904 1.04619Z"/><path id="shape4" transform="translate(3.93721020159282, 26.5711441390423)" fill="#480075" fill-rule="evenodd" d="M0.365838 3.00266L10.3413 1.04765L10.7052 1.01121C10.6302 0.71194 10.5948 0.259826 10.4033 0.150316C10.2567 0.0222111 10.1026 -0.00589321 9.83373 0.00095137L0 2.13057C0.0515543 2.53001 0.1735 2.82071 0.365838 3.00266Z"/><path id="shape5" transform="translate(7.47730645622706, 1.61030671715301)" fill="#480075" fill-rule="evenodd" d="M0.0316311 2.68665L22.6264 24.908L23.9499 29.8474L23.9499 31.2978L25.1264 29.26C25.4532 28.317 25.3619 26.4909 25.1264 25.6777C24.7396 24.5017 24.2243 23.2429 23.3391 22.1319L0.976203 0C0.481517 0.393391 -0.149032 1.94183 0.0316311 2.68665Z"/><path id="shape2" transform="matrix(1.62184384841609 0 0 1.62184384841609 5.59814270395013 1.96429037645961)" fill="none" stroke="#ae4fd3" stroke-width="1.4" stroke-linecap="round" stroke-linejoin="round" d="M0 0C4.87866 4.7491 9.77867 9.57822 14.6068 14.138C16.028 16.4036 16.1646 18.2814 15.0166 19.7715C13.2946 22.0066 10.8922 21.6489 10.0427 21.2623C9.19308 20.8757 7.41742 20.5683 7.38664 17.2664C7.35587 13.9646 11.5209 14.1192 12.5711 15.8622C13.6214 17.6051 13.0388 18.9978 11.7029 19.1329C10.8123 19.223 10.2916 18.6426 10.1407 17.3917"/><path id="shape3" transform="matrix(1.62184384841609 0 0 1.62184384841609 1.1562532119433 16.6646241595808)" fill="none" stroke="#ae4fd3" stroke-width="1.4" stroke-linecap="round" stroke-linejoin="bevel" d="M0 0L6.78468 2.06392"/><path id="shape4" transform="matrix(1.62184384841609 0 0 1.62184384841609 2.91676361820166 28.042400371343)" fill="none" stroke="#ae4fd3" stroke-width="1.4" stroke-linecap="round" stroke-linejoin="bevel" d="M0 1.57741L6.62464 0"/><path id="shape5" transform="matrix(1.62184384841609 0 0 1.62184384841609 28.1229467295957 49.638231717392)" fill="#8121a6" fill-rule="evenodd" stroke="#000000" stroke-opacity="0" stroke-width="0" stroke-linecap="square" stroke-linejoin="bevel" d="M0 11.4532C2.15184 3.25375 7.03873 -0.543165 14.6607 0.0624891C22.2826 0.668143 26.1318 4.60881 26.2081 11.8845C25.51 12.433 24.943 13.0007 23.6617 13.4641C13.2926 13.2627 5.66741 12.8905 0.786008 12.3477C0.342294 12.033 0.333238 12.0091 0 11.4532Z"/><path id="shape6" transform="matrix(1.62184384841609 0 0 1.62184384841609 42.9376428299747 30.4759222461004)" fill="#ae4fd3" fill-rule="evenodd" stroke="#000000" stroke-opacity="0" stroke-width="0" stroke-linecap="square" stroke-linejoin="bevel" d="M0 12.3419L1.22604 1.89924C1.5146 0.522425 2.2668 -0.105819 3.48264 0.0145057C4.69848 0.13483 6.78242 0.366961 9.73448 0.710898C11.662 0.927329 12.0707 2.10533 10.9606 4.24491C9.8505 6.38449 8.07263 8.93389 5.62695 11.8931C5.48931 11.9155 3.61366 12.0651 0 12.3419Z"/><path id="shape6" transform="translate(39.5616305191859, 19.351624700531)" fill="#220033" fill-rule="evenodd" d="M0 1.32706L4.0423 5.36936L1.55852 0C1.53718 0.0173176 1.01767 0.459671 0 1.32706Z"/>
</svg>
