<?xml version="1.0" standalone="no"?>
<!DOCTYPE svg PUBLIC "-//W3C//DTD SVG 20010904//EN" "http://www.w3.org/TR/2001/REC-SVG-20010904/DTD/svg10.dtd">
<!-- Created using Krita: https://krita.org -->
<svg xmlns="http://www.w3.org/2000/svg" 
    xmlns:xlink="http://www.w3.org/1999/xlink"
    xmlns:krita="http://krita.org/namespaces/svg/krita"
    xmlns:sodipodi="http://sodipodi.sourceforge.net/DTD/sodipodi-0.dtd"
    width="72pt"
    height="72pt"
    viewBox="0 0 72 72">
<defs/>
<path id="shape0" transform="matrix(1.27045857537444 0 0 1.27045857537444 12.5905357887516 9.09544576497989)" fill="#8121a6" fill-rule="evenodd" stroke="#000000" stroke-opacity="0" stroke-width="0" stroke-linecap="square" stroke-linejoin="bevel" d="M4.82634 0.000247151L41.8049 0.380388C46.7352 0.604957 45.5856 3.48427 45.7754 5.23035L45.7754 39.2809C45.7031 41.9786 44.3501 42.4172 42.7089 42.3474L3.00762 42.3474C1.31036 42.0054 -0.0356113 41.3296 0.000718474 39.3405L0.000718474 3.28715C0.665386 1.07671 2.27393 -0.0189196 4.82634 0.000247151Z"/><path id="shape1" transform="matrix(1.27045857537444 0 0 1.27045857537444 12.8318963274399 17.3830693082537)" fill="#48226d" fill-rule="evenodd" stroke="#000000" stroke-opacity="0" stroke-width="0" stroke-linecap="square" stroke-linejoin="bevel" d="M1.77636e-15 24.345L0 30.0056L38.442 30.0056C42.2353 30.2034 45.2506 29.2876 45.4146 21.0132L45.3313 0L1.77636e-15 1.87195C0.135227 9.21495 0.135227 16.706 1.77636e-15 24.345Z"/><path id="shape2" transform="matrix(1.27045857537444 0 0 1.27045857537444 1.25377417291592 14.6996100671606)" fill="#8121a6" fill-rule="evenodd" stroke="#000000" stroke-opacity="0" stroke-width="0" stroke-linecap="square" stroke-linejoin="bevel" d="M0 29L48.8715 29C51.1107 26.3846 53.5303 25.9693 54.5073 7.96681L54.5073 7.10543e-15L9.00925 0C9.17426 10.0124 6.17117 19.679 0 29Z"/><path id="shape3" transform="matrix(1.27045857537444 0 0 1.27045857537444 12.5582705317507 9.18238051317579)" fill="#ae4fd3" fill-rule="evenodd" stroke="#000000" stroke-opacity="0" stroke-width="0" stroke-linecap="square" stroke-linejoin="bevel" d="M0 6.75552L45.718 6.7162L45.7359 3.41945C45.5423 2.27272 46.3413 0.998874 42.6194 0.303968L3.41943 0C0.811144 0.385016 -0.0438611 1.79 0.0934856 4.1206C0.0384062 4.15434 0.00724431 5.03264 0 6.75552Z"/><path id="shape4" transform="translate(8.7530471353698, 15.1164156692135)" fill="none" stroke="#ae4fd3" stroke-width="0.94" stroke-linecap="square" stroke-linejoin="bevel" d="M9.26554 0C9.94453 12.3434 8.76232 24.8381 0 36.0184"/><path id="shape01" transform="matrix(0.99999995598048 0 0 0.99999995598048 16.6704627031488 16.4891851594789)" fill="none" stroke="#ae4fd3" stroke-width="0.94" stroke-linecap="square" stroke-linejoin="bevel" d="M8.48689 0C9.41292 12.6656 8.75205 23.7761 0 34.945"/><path id="shape01" transform="matrix(0.999999978400642 0 0 0.999999978400642 24.8857099228111 16.9132483930514)" fill="none" stroke="#ae4fd3" stroke-width="0.94" stroke-linecap="square" stroke-linejoin="bevel" d="M8.53736 0C8.94452 12.5812 8.74602 23.5799 0 34.7511"/><path id="shape02" transform="matrix(0.999999978400642 0 0 0.999999978400642 34.9719948615125 16.7596483841748)" fill="none" stroke="#ae4fd3" stroke-width="0.94" stroke-linecap="square" stroke-linejoin="bevel" d="M7.96356 0C8.57906 12.4321 8.72936 23.0688 0 34.24"/><path id="shape03" transform="matrix(0.999999978400642 0 0 0.999999978400642 44.5580270108585 16.3304718887842)" fill="none" stroke="#ae4fd3" stroke-width="0.94" stroke-linecap="square" stroke-linejoin="bevel" d="M8.70449 0C9.33481 12.2549 8.77009 23.2728 0 34.4599"/><path id="shape04" transform="matrix(0.999999978400642 0 0 0.999999978400642 54.1965804019069 17.1120248751271)" fill="none" stroke="#ae4fd3" stroke-width="0.94" stroke-linecap="square" stroke-linejoin="bevel" d="M8.15837 0C8.78816 12.5509 8.76194 22.488 0 33.6608"/><path id="shape5" transform="translate(4.9021399814564, 46.3915997680986)" fill="none" stroke="#ae4fd3" stroke-width="0.94" stroke-linecap="square" stroke-linejoin="bevel" d="M0 0.00668689L61.5953 0"/><path id="shape05" transform="matrix(0.999999964477963 0 0 0.999999964477963 7.89530970751305 40.1802725100521)" fill="none" stroke="#ae4fd3" stroke-width="0.94" stroke-linecap="square" stroke-linejoin="bevel" d="M0 0L60.5505 0.185878"/><path id="shape06" transform="matrix(0.999999964477963 0 0 0.999999964477963 10.3837298228219 33.6229469356898)" fill="none" stroke="#ae4fd3" stroke-width="0.94" stroke-linecap="square" stroke-linejoin="bevel" d="M0 0.0613935L58.936 0"/><path id="shape07" transform="matrix(0.999999964477963 0 0 0.999999964477963 12.0512599587426 27.3857660340478)" fill="none" stroke="#ae4fd3" stroke-width="0.94" stroke-linecap="square" stroke-linejoin="bevel" d="M0 0.173998L57.6986 0"/><path id="shape08" transform="matrix(0.999999964477963 0 0 0.999999964477963 12.828212090815 21.5846287652223)" fill="none" stroke="#ae4fd3" stroke-width="0.94" stroke-linecap="square" stroke-linejoin="bevel" d="M0 0.215526L57.4939 0"/><path id="shape6" transform="translate(11.6611787287101, 21.6443257401487)" fill="#ae4fd3" fill-rule="evenodd" stroke="#000000" stroke-opacity="0" stroke-width="0" stroke-linecap="square" stroke-linejoin="bevel" d="M0.769708 0L6.43838 0.313057L6.45861 5.82714L0 5.651C0.480084 3.40481 0.736653 1.52115 0.769708 0Z"/><path id="shape7" transform="translate(34.0284235881686, 46.431530505229)" fill="#ae4fd3" fill-rule="evenodd" stroke="#000000" stroke-opacity="0" stroke-width="0" stroke-linecap="square" stroke-linejoin="bevel" d="M29.2815 5.04565C31.0436 3.82066 32.1654 1.6314 33.1047 0L3.41026 0.100625L0 5.00093C0.462428 4.90829 10.2229 4.92319 29.2815 5.04565Z"/><path id="shape8" transform="translate(15.2367903881375, 51.5618163723513)" fill="#48226d" fill-rule="evenodd" stroke="#000000" stroke-opacity="0" stroke-width="0" stroke-linecap="square" stroke-linejoin="bevel" d="M0 0L23.1321 7.10543e-15L6.33653 2.19784C6.26653 2.15266 4.15435 1.42005 0 0Z"/>
</svg>
