<?xml version="1.0" standalone="no"?>
<!DOCTYPE svg PUBLIC "-//W3C//DTD SVG 20010904//EN" "http://www.w3.org/TR/2001/REC-SVG-20010904/DTD/svg10.dtd">
<!-- Created using Krita: https://krita.org -->
<svg xmlns="http://www.w3.org/2000/svg" 
    xmlns:xlink="http://www.w3.org/1999/xlink"
    xmlns:krita="http://krita.org/namespaces/svg/krita"
    xmlns:sodipodi="http://sodipodi.sourceforge.net/DTD/sodipodi-0.dtd"
    width="72pt"
    height="72pt"
    viewBox="0 0 72 72">
<defs/>
<path id="shape0" transform="translate(4.72890085587893, 12.4968934065662)" fill="#8121a6" fill-rule="evenodd" d="M0.00121898 38.9632L0.00121898 5.28722C-0.0424637 2.24234 1.07594 0.138864 5.28844 0L56.3073 1.28508e-14C61.5046 0.0142877 62.5139 2.13003 62.5359 6.22863L62.5359 38.8163C62.5961 41.7639 62.3042 43.3496 57.9539 43.3984L4.56065 43.3984C1.47277 43.3454 -0.0470435 41.867 0.00121898 38.9632Z"/><path id="shape1" transform="translate(5.78444490507961, 13.5729887586865)" fill="none" stroke="#48226d" stroke-width="2.4" stroke-linecap="round" stroke-linejoin="bevel" d="M0 0L60.4311 1.42109e-14"/><ellipse id="shape2" transform="translate(2.24248312142047, 11.0998589448762)" rx="2.52" ry="2.4" cx="2.52" cy="2.4" fill="#48226d" fill-rule="evenodd"/><ellipse id="shape0" transform="matrix(0.999999972553201 0 0 0.999999972553201 64.4043578583617 11.2277671796098)" rx="2.52" ry="2.4" cx="2.52" cy="2.4" fill="#48226d" fill-rule="evenodd" stroke="#000000" stroke-opacity="0" stroke-width="0" stroke-linecap="square" stroke-linejoin="bevel"/><g id="group0" transform="matrix(0.704830757564746 0 0 0.704830757564746 10.2141867346876 16.891240091164)" fill="none">
  <path id="shape3" transform="translate(1.14721796740825, 0.699838487848535)" fill="#4c0c79" fill-rule="evenodd" d="M0 9.05006L4.02059 5.42515L8.09823 9.12752L8.79582 7.91926L5.36007 4.48351L8.80308 1.04051L8.52428 0C8.79843 0.0522884 9.07163 0.10905 9.30504 0.35144C9.37278 0.482456 9.46545 0.826382 9.4849 1.02268C9.51799 1.45782 9.49701 1.66463 9.41337 1.94446L6.71137 4.64646L9.31305 7.24814C9.54099 7.60564 9.59847 7.95686 9.59647 8.30588C9.61603 8.66866 9.52284 9.07714 9.32575 9.31624C8.97328 9.68922 8.70735 9.88114 8.20751 9.96185C7.85593 9.99641 7.75039 10.0417 7.43779 9.96185C6.00839 8.84076 5.38691 7.91097 4.36147 6.88553L1.44499 9.45624C0.980461 9.61454 0.785871 9.58209 0.426536 9.45624C0.422706 9.46773 0.280527 9.33234 0 9.05006Z"/>
  <path id="shape4" transform="translate(0.327447172584773, 1.29313968161672)" fill="#4c0c79" fill-rule="evenodd" d="M0.836929 0L4.15452 3.31759L3.31993 4.76315L0.214707 1.65793C-0.101631 1.22829 -0.0398445 0.827499 0.214707 0.441408C0.179595 0.41443 0.387003 0.267294 0.836929 0Z"/>
  <path id="shape5" fill="#48226d" fill-rule="evenodd" stroke="#000000" stroke-opacity="0" stroke-width="0" stroke-linecap="square" stroke-linejoin="bevel" d="M9.94539 7.78128L6.99153 4.91428L9.83508 2.09185C10.2184 1.69531 10.0275 0.642711 9.71419 0.329304C9.40088 0.0158975 8.32388 -0.16873 7.97601 0.218696L5.07471 3.05099L2.20013 0.252887C1.81311 -0.063609 0.828132 0.112176 0.514921 0.425388C0.201709 0.738599 -0.0422615 1.56563 0.354922 2.17633L3.15808 4.9141L0.23397 7.81894C-0.182993 8.27755 0.0215646 9.0356 0.34852 9.34469C0.675476 9.65379 1.71162 9.95556 2.18269 9.57709L5.0749 6.79119L7.99939 9.68717C8.50761 10.0556 9.58773 9.82993 9.9146 9.52106C10.2415 9.21235 10.3454 8.18972 9.95 7.79013"/>
 </g><g id="group1" transform="matrix(0.747165329465028 0 0 0.747165329465028 31.3915553696467 15.8298663495179)" fill="none">
  <path id="shape6" transform="translate(0.36065009301425, 0.385099892415312)" fill="#4c0c79" fill-rule="evenodd" d="M0.56405 8.55034L10.3477 8.55034L6.22954 0.425347L6.89164 0.0240411C7.05706 -0.00769371 7.35369 -0.0368393 7.49066 0.137444L11.6519 7.4767C12.2418 8.55495 12.0193 9.81767 11.0262 9.81163L0.544684 9.81163C0.123232 9.77119 -0.105505 9.31421 0.0477889 8.95098C0.0248506 8.97678 0.196938 8.84323 0.56405 8.55034Z"/>
  <path id="shape7" fill="#48226d" fill-rule="evenodd" d="M4.55357 1.0122C5.56166 -0.20876 6.70903 -0.460184 7.47361 1.01216L10.9479 7.20847C11.7528 8.76308 11.7558 9.74618 9.32441 9.72401L2.14873 9.7836C-0.123714 9.71541 -0.48741 8.86813 0.559503 7.44686Z"/>
 </g><g id="group2" transform="matrix(0.731075628153946 0 0 0.731075628153946 52.3895643163525 16.5215055576709)" fill="none">
  <path id="shape8" transform="translate(0, 0.594224579766991)" fill="#4c0c79" fill-rule="evenodd" d="M1.05452 3.71835L4.5189 7.4631L11.982 0C12.2607 0.0764187 12.4753 0.196905 12.6703 0.397394C12.8293 0.674624 12.9287 0.962658 12.6703 1.31562L5.82324 8.59938C4.80609 9.37888 4.05911 9.40293 3.36 8.59938L0.0451365 4.40869C-0.0569804 4.09358 0.0282234 3.92765 0.16075 3.79941C0.177752 3.73031 0.475675 3.70329 1.05452 3.71835Z"/>
  <path id="shape9" transform="translate(0.076953940421113, 0)" fill="#48226d" fill-rule="evenodd" d="M2.24278 2.8254C1.19855 2.10335 -0.689066 3.32188 0.258117 4.81007L3.36959 8.47536C3.7614 9.00229 5.02176 8.89708 5.50048 8.47536L12.0689 1.90696C12.7651 0.682041 11.4537 -0.485615 10.3689 0.206947L4.61979 5.5588C4.71009 5.44334 3.91775 4.5322 2.24278 2.8254Z"/>
 </g><path id="shape10" transform="translate(25.5068868656817, 18.1017895593357)" fill="#ae4fd3" fill-rule="evenodd" d="M0 33.7107L7.10543e-15 0Z"/><path id="shape11" transform="translate(23.696283212779, 17.1820456861808)" fill="none" stroke="#4c0c79" stroke-width="1.2" stroke-linecap="round" stroke-linejoin="bevel" d="M7.10543e-15 0L0 35.8524"/><path id="shape12" transform="translate(23.2329927094605, 16.8705640783742)" fill="none" stroke="#ae4fd3" stroke-width="0.96" stroke-linecap="round" stroke-linejoin="bevel" d="M7.10543e-15 0L0 36.2316"/><ellipse id="shape13" transform="translate(22.040183429612, 15.5672470508347)" rx="1.2" ry="1.2" cx="1.2" cy="1.2" fill="#ae4fd3" fill-rule="evenodd"/><path id="shape01" transform="matrix(0.999999985465613 0 0 0.999999985465613 48.2225871517895 17.6297704588168)" fill="none" stroke="#4c0c79" stroke-width="1.2" stroke-linecap="round" stroke-linejoin="bevel" d="M7.10543e-15 0L0 35.6531"/><path id="shape02" transform="matrix(0.999999967035293 0 0 0.999999967035293 47.7331522973617 17.0988793344195)" fill="none" stroke="#ae4fd3" stroke-width="0.96" stroke-linecap="round" stroke-linejoin="bevel" d="M7.10543e-15 0L0 36.2316"/><circle id="shape1" transform="matrix(0.999999967035293 0 0 0.999999967035293 46.5403430568338 15.7955623498435)" r="1.2" cx="1.2" cy="1.2" fill="#ae4fd3" fill-rule="evenodd" stroke="#000000" stroke-opacity="0" stroke-width="0" stroke-linecap="square" stroke-linejoin="bevel"/><path id="shape03" transform="matrix(1.00000002504102 0 0 1.00000002504102 7.18298618571923 27.0480714151467)" fill="#4e0d7b" fill-rule="evenodd" stroke="#000000" stroke-opacity="0" stroke-width="0" stroke-linecap="square" stroke-linejoin="bevel" d="M1.24845 3.66988L5.36169 3.6297L6.44307 0L6.77155 1.54786C6.84734 2.76018 6.54134 4.06117 6.02728 4.53794L0 4.58029C0.648497 4.39736 1.06465 4.09389 1.24845 3.66988Z"/><path id="shape14" transform="translate(7.27981888575518, 26.7100247601302)" fill="#ae4fd3" fill-rule="evenodd" d="M1.67419 0L6.5163 0C6.55494 2.19595 6.21865 3.21566 5.41021 4.12797L0 4.12797C0.948263 3.19144 1.50633 1.81545 1.67419 0Z"/><path id="shape04" transform="matrix(1.00000002504102 0 0 1.00000002504102 13.7410669722128 35.1764480858973)" fill="#4e0d7b" fill-rule="evenodd" stroke="#000000" stroke-opacity="0" stroke-width="0" stroke-linecap="square" stroke-linejoin="bevel" d="M1.24845 3.66988L5.36169 3.6297L6.44307 0L6.77155 1.54786C6.84734 2.76018 6.54134 4.06117 6.02728 4.53794L0 4.58029C0.648497 4.39736 1.06465 4.09389 1.24845 3.66988Z"/><path id="shape05" transform="matrix(1.00000000563949 0 0 1.00000000563949 13.8556221799489 34.9348496904705)" fill="#ae4fd3" fill-rule="evenodd" stroke="#000000" stroke-opacity="0" stroke-width="0" stroke-linecap="square" stroke-linejoin="bevel" d="M1.67419 0L6.5163 0C6.55494 2.19595 6.21865 3.21566 5.41021 4.12797L0 4.12797C0.948263 3.19144 1.50633 1.81545 1.67419 0Z"/><path id="shape06" transform="matrix(1.00000002504102 0 0 1.00000002504102 6.19050178627917 37.7006834421746)" fill="#4e0d7b" fill-rule="evenodd" stroke="#000000" stroke-opacity="0" stroke-width="0" stroke-linecap="square" stroke-linejoin="bevel" d="M1.24845 3.66988L5.36169 3.6297L6.44307 0L6.77155 1.54786C6.84734 2.76018 6.54134 4.06117 6.02728 4.53794L0 4.58029C0.648497 4.39736 1.06465 4.09389 1.24845 3.66988Z"/><path id="shape07" transform="matrix(1.00000000563949 0 0 1.00000000563949 6.33781689241484 37.4686155199565)" fill="#ae4fd3" fill-rule="evenodd" stroke="#000000" stroke-opacity="0" stroke-width="0" stroke-linecap="square" stroke-linejoin="bevel" d="M1.67419 0L6.5163 0C6.55494 2.19595 6.21865 3.21566 5.41021 4.12797L0 4.12797C0.948263 3.19144 1.50633 1.81545 1.67419 0Z"/><path id="shape08" transform="translate(13.3479248907527, 45.1427837297385)" fill="#4e0d7b" fill-rule="evenodd" stroke="#000000" stroke-opacity="0" stroke-width="0" stroke-linecap="square" stroke-linejoin="bevel" d="M1.24845 3.66988L5.36169 3.6297L6.44307 0L6.77155 1.54786C6.84734 2.76018 6.54134 4.06117 6.02728 4.53794L0 4.58029C0.648497 4.39736 1.06465 4.09389 1.24845 3.66988Z"/><path id="shape09" transform="matrix(1.00000000563949 0 0 1.00000000563949 13.4988164064749 44.77114859332)" fill="#ae4fd3" fill-rule="evenodd" stroke="#000000" stroke-opacity="0" stroke-width="0" stroke-linecap="square" stroke-linejoin="bevel" d="M1.67419 0L6.5163 0C6.55494 2.19595 6.21865 3.21566 5.41021 4.12797L0 4.12797C0.948263 3.19144 1.50633 1.81545 1.67419 0Z"/><path id="shape010" transform="translate(25.8903655796079, 26.6599592518875)" fill="#4e0d7b" fill-rule="evenodd" stroke="#000000" stroke-opacity="0" stroke-width="0" stroke-linecap="square" stroke-linejoin="bevel" d="M1.24845 3.66988L5.36169 3.6297L6.44307 0L6.77155 1.54786C6.84734 2.76018 6.54134 4.06117 6.02728 4.53794L0 4.58029C0.648497 4.39736 1.06465 4.09389 1.24845 3.66988Z"/><path id="shape011" transform="matrix(1.00000000563949 0 0 1.00000000563949 26.0640704855211 26.4189821425442)" fill="#ae4fd3" fill-rule="evenodd" stroke="#000000" stroke-opacity="0" stroke-width="0" stroke-linecap="square" stroke-linejoin="bevel" d="M1.67419 0L6.5163 0C6.55494 2.19595 6.21865 3.21566 5.41021 4.12797L0 4.12797C0.948263 3.19144 1.50633 1.81545 1.67419 0Z"/><path id="shape012" transform="translate(32.6084950776721, 34.1716773934083)" fill="#4e0d7b" fill-rule="evenodd" stroke="#000000" stroke-opacity="0" stroke-width="0" stroke-linecap="square" stroke-linejoin="bevel" d="M1.24845 3.66988L5.36169 3.6297L6.44307 0L6.77155 1.54786C6.84734 2.76018 6.54134 4.06117 6.02728 4.53794L0 4.58029C0.648497 4.39736 1.06465 4.09389 1.24845 3.66988Z"/><path id="shape013" transform="matrix(1.00000000563949 0 0 1.00000000563949 32.7403632386315 33.9360149883602)" fill="#ae4fd3" fill-rule="evenodd" stroke="#000000" stroke-opacity="0" stroke-width="0" stroke-linecap="square" stroke-linejoin="bevel" d="M1.67419 0L6.5163 0C6.55494 2.19595 6.21865 3.21566 5.41021 4.12797L0 4.12797C0.948263 3.19144 1.50633 1.81545 1.67419 0Z"/><path id="shape014" transform="translate(26.735578662969, 40.4466895367289)" fill="#4e0d7b" fill-rule="evenodd" stroke="#000000" stroke-opacity="0" stroke-width="0" stroke-linecap="square" stroke-linejoin="bevel" d="M1.24845 3.66988L5.36169 3.6297L6.44307 0L6.77155 1.54786C6.84734 2.76018 6.54134 4.06117 6.02728 4.53794L0 4.58029C0.648497 4.39736 1.06465 4.09389 1.24845 3.66988Z"/><path id="shape015" transform="matrix(1.00000000563949 0 0 1.00000000563949 26.8428337103683 40.2286280201254)" fill="#ae4fd3" fill-rule="evenodd" stroke="#000000" stroke-opacity="0" stroke-width="0" stroke-linecap="square" stroke-linejoin="bevel" d="M1.67419 0L6.5163 0C6.55494 2.19595 6.21865 3.21566 5.41021 4.12797L0 4.12797C0.948263 3.19144 1.50633 1.81545 1.67419 0Z"/><path id="shape016" transform="translate(50.4836299873538, 28.3712685772276)" fill="#4e0d7b" fill-rule="evenodd" stroke="#000000" stroke-opacity="0" stroke-width="0" stroke-linecap="square" stroke-linejoin="bevel" d="M1.24845 3.66988L5.36169 3.6297L6.44307 0L6.77155 1.54786C6.84734 2.76018 6.54134 4.06117 6.02728 4.53794L0 4.58029C0.648497 4.39736 1.06465 4.09389 1.24845 3.66988Z"/><path id="shape017" transform="matrix(1.00000000563949 0 0 1.00000000563949 50.5462129819964 28.1791290031843)" fill="#ae4fd3" fill-rule="evenodd" stroke="#000000" stroke-opacity="0" stroke-width="0" stroke-linecap="square" stroke-linejoin="bevel" d="M1.67419 0L6.5163 0C6.55494 2.19595 6.21865 3.21566 5.41021 4.12797L0 4.12797C0.948263 3.19144 1.50633 1.81545 1.67419 0Z"/><path id="shape15" transform="translate(57.6306669580075, 31.4197079882366)" fill="#4e0d7b" fill-rule="evenodd" d="M1.24845 3.66988L5.36169 3.6297L6.44307 0L6.77155 1.54786C6.84734 2.76018 6.54134 4.06117 6.02728 4.53794L0 4.58029C0.648497 4.39736 1.06465 4.09389 1.24845 3.66988Z"/><path id="shape018" transform="matrix(1.00000000563949 0 0 1.00000000563949 57.5876813964288 31.348032244119)" fill="#ae4fd3" fill-rule="evenodd" stroke="#000000" stroke-opacity="0" stroke-width="0" stroke-linecap="square" stroke-linejoin="bevel" d="M1.67419 0L6.5163 0C6.55494 2.19595 6.21865 3.21566 5.41021 4.12797L0 4.12797C0.948263 3.19144 1.50633 1.81545 1.67419 0Z"/><ellipse id="shape16" transform="translate(10.56, 26.64)" rx="0.600000000000001" ry="0.6" cx="0.600000000000001" cy="0.6" fill="#48226d" fill-rule="evenodd"/><circle id="shape17" transform="translate(17.28, 35.04)" r="0.48" cx="0.48" cy="0.48" fill="#48226d" fill-rule="evenodd"/><ellipse id="shape18" transform="translate(9.6, 37.44)" rx="0.48" ry="0.48" cx="0.48" cy="0.48" fill="#48226d" fill-rule="evenodd"/><ellipse id="shape19" transform="translate(15.36, 44.88)" rx="0.6" ry="0.600000000000001" cx="0.6" cy="0.600000000000001" fill="#48226d" fill-rule="evenodd"/><circle id="shape20" transform="translate(18.72, 44.88)" r="0.48" cx="0.48" cy="0.48" fill="#48226d" fill-rule="evenodd"/><ellipse id="shape21" transform="translate(28.56, 40.32)" rx="0.359999999999999" ry="0.479999999999997" cx="0.359999999999999" cy="0.479999999999997" fill="#48226d" fill-rule="evenodd"/><circle id="shape22" transform="translate(32.16, 40.56)" r="0.48" cx="0.48" cy="0.48" fill="#48226d" fill-rule="evenodd"/><circle id="shape23" transform="translate(34.32, 34.08)" r="0.599999999999998" cx="0.599999999999998" cy="0.599999999999998" fill="#48226d" fill-rule="evenodd"/><ellipse id="shape24" transform="translate(38.4, 34.08)" rx="0.359999999999999" ry="0.48" cx="0.359999999999999" cy="0.48" fill="#48226d" fill-rule="evenodd"/><circle id="shape25" transform="translate(29.28, 26.64)" r="0.48" cx="0.48" cy="0.48" fill="#48226d" fill-rule="evenodd"/><circle id="shape26" transform="translate(54, 28.32)" r="0.48" cx="0.48" cy="0.48" fill="#48226d" fill-rule="evenodd"/><ellipse id="shape27" transform="translate(59.52, 31.44)" rx="0.359999999999999" ry="0.48" cx="0.359999999999999" cy="0.48" fill="#48226d" fill-rule="evenodd"/><ellipse id="shape28" transform="translate(63.12, 31.68)" rx="0.359999999999999" ry="0.360000000000001" cx="0.359999999999999" cy="0.360000000000001" fill="#48226d" fill-rule="evenodd"/>
</svg>
