<?xml version="1.0" standalone="no"?>
<!DOCTYPE svg PUBLIC "-//W3C//DTD SVG 20010904//EN" "http://www.w3.org/TR/2001/REC-SVG-20010904/DTD/svg10.dtd">
<!-- Created using Krita: https://krita.org -->
<svg xmlns="http://www.w3.org/2000/svg" 
    xmlns:xlink="http://www.w3.org/1999/xlink"
    xmlns:krita="http://krita.org/namespaces/svg/krita"
    xmlns:sodipodi="http://sodipodi.sourceforge.net/DTD/sodipodi-0.dtd"
    width="72pt"
    height="72pt"
    viewBox="0 0 72 72">
<defs/>
<path id="shape0" transform="matrix(1.20079694535497 0 0 1.20079694535497 25.5725976306592 1.20731912833698)" fill="#ae4fd3" fill-rule="evenodd" stroke="#000000" stroke-opacity="0" stroke-width="0" stroke-linecap="square" stroke-linejoin="bevel" d="M0.0181309 6.50681L0.0181309 22.2265C0.309731 25.617 1.42403 26.1447 3.93861 26.147L30.377 23.2406C31.9003 23.0214 31.9593 22.8945 32.0383 20.9655L32.0383 1.50546C31.9144 -0.171966 31.8374 -0.0202418 29.6649 0.0244083L1.17924 3.3758C0.295598 3.36331 -0.0914373 4.40698 0.0181309 6.50681Z"/><path id="shape1" transform="matrix(1.02669126890986 0 0 1.02669126890986 19.7161070540158 24.9150176566472)" fill="#851db5" fill-rule="evenodd" stroke="#8121a6" stroke-width="1.44" stroke-linecap="square" stroke-linejoin="bevel" d="M0 4.87985C0.522856 1.1656 2.65333 0.658551 4.87564 0C9.60374 0.695286 9.12015 2.93147 9.83933 4.94691C9.22356 7.27344 8.48736 9.27791 5.51672 9.31365C2.26218 8.96434 0.423275 7.4864 0 4.87985Z"/><path id="shape2" transform="matrix(1.02669126890986 0 0 1.02669126890986 17.9190112175365 36.0894575059662)" fill="#851db5" fill-rule="evenodd" stroke="#8121a6" stroke-width="1.44" stroke-linecap="square" stroke-linejoin="bevel" d="M11.9586 7.78899C7.81286 9.02159 3.79349 8.65778 0 7.57975C0.320855 4.4131 2.44083 0.0572551 6.90748 0C10.457 0.488292 12.1407 3.08462 11.9586 7.78899Z"/><path id="shape3" transform="matrix(1.02669126890986 0 0 1.02669126890986 7.95594402908375 37.8917419248102)" fill="#851db5" fill-rule="evenodd" stroke="#8d12ea" stroke-width="0.48" stroke-linecap="square" stroke-linejoin="bevel" d="M4.16824 2.57516C3.86638 1.30455 2.80251 1.15247 2.75585 0.530303C3.0839 -0.473758 4.70022 0.0152203 6.4244 1.43124C6.92791 1.19191 8.00709 2.1748 7.91999 3.0442L8.70429 4.40264L8.21839 6.21604C7.47743 7.1633 6.23651 7.39487 5.43068 9.00375C4.7721 9.1842 4.20129 9.04679 3.70306 8.54083C3.093 8.72275 2.59462 9.13016 1.68472 8.54083C1.3397 8.17446 1.10387 7.74567 1.265 6.97441C0.786106 6.91501 0.373838 6.7581 0.147159 6.32903C-0.150497 5.61415 0.0852295 5.28103 0.147159 4.86602C0.910382 4.0232 2.25074 3.25958 4.16824 2.57516Z"/><path id="shape4" transform="matrix(1.02669126890986 0 0 1.02669126890986 31.9422912292348 34.2733458881221)" fill="#851db5" fill-rule="evenodd" stroke="#8121a6" stroke-width="0.48" stroke-linecap="square" stroke-linejoin="bevel" d="M2.28538 8.76506C1.37738 8.70106 0.514157 8.52194 0 7.44559C0.182157 6.37211 0.475962 6.13664 0.759622 6.12989C0.323947 5.72284 0.307833 5.00871 0.271768 4.30919C0.732061 3.39746 1.37224 2.71554 2.24729 2.33367C2.14454 1.98867 2.04721 1.61262 1.95124 1.22879C2.20252 0.469811 2.37678 -0.378333 3.76667 0.180653C4.02719 0.880515 4.47012 1.15034 4.41403 2.59663C6.44458 3.48924 7.76873 4.28759 8.61529 5.02223C8.828 6.19631 8.68333 6.99358 7.59269 6.79342C6.94494 6.14617 5.67096 5.59096 4.51761 5.01802C5.789 6.45879 7.2054 7.98298 7.24592 8.71555C7.3797 10.3416 6.85511 10.9218 5.60759 10.3539C5.46313 9.87299 4.99968 9.59041 4.55183 9.29812C4.62897 9.90825 4.67554 10.5073 4.55183 11.0445C3.86711 11.8452 3.20563 12.187 2.61929 11.0445C2.80539 10.9168 2.69409 10.157 2.28538 8.76506Z"/><path id="shape5" transform="matrix(1.20079694535497 0 0 1.20079694535497 26.4510668658884 46.6786950312085)" fill="#8121a6" fill-rule="evenodd" stroke="#000000" stroke-opacity="0" stroke-width="0" stroke-linecap="square" stroke-linejoin="bevel" d="M0 5.26971C0.0773608 2.36017 1.36281 0.676718 4.83641 0C8.99917 1.13906 8.95057 2.6581 9.26338 4.63975C9.36234 7.99648 7.98006 9.33895 5.0481 9.96571C2.20852 9.8023 0.525821 8.23696 0 5.26971Z"/><path id="shape6" transform="matrix(1.20079694535497 0 0 1.20079694535497 25.9923793812349 59.3701470209051)" fill="#8121a6" fill-rule="evenodd" stroke="#000000" stroke-opacity="0" stroke-width="0" stroke-linecap="square" stroke-linejoin="bevel" d="M5.91402 0C12.3516 1.02818 11.1916 7.67963 10.8468 8.54377C7.47778 9.57186 4.85234 10.1043 0.00265464 8.46946C-0.0260441 5.7865 0.0725894 1.40465 5.91402 0Z"/><path id="shape7" transform="matrix(1.20079694535497 0 0 1.20079694535497 44.6503389719001 46.0481326681656)" fill="#8121a6" fill-rule="evenodd" stroke="#000000" stroke-opacity="0" stroke-width="0" stroke-linecap="square" stroke-linejoin="bevel" d="M4.54256 7.88826C2.46244 7.94214 0.792002 7.41139 0.180361 5.36974C-0.446602 2.35876 0.57783 0.999108 2.99107 0.0295242C7.14785 -0.352692 8.08176 3.07539 8.06428 4.57344C7.68425 6.5266 6.51034 7.63154 4.54256 7.88826Z"/><path id="shape8" transform="matrix(1.20079694535497 0 0 1.20079694535497 46.8050252542768 41.6003254154449)" fill="#8121a6" fill-rule="evenodd" stroke="#000000" stroke-opacity="0" stroke-width="0" stroke-linecap="square" stroke-linejoin="bevel" d="M4.57664 0C1.62174 0.537581 -0.250311 2.64784 0.0271562 7.87993C4.21716 8.79174 6.18402 8.75448 9.39264 7.87993C9.83178 2.85308 8.22644 0.226435 4.57664 0Z"/><path id="shape9" transform="matrix(1.20079694535497 0 0 1.20079694535497 44.4094872713041 55.6325467665452)" fill="#8121a6" fill-rule="evenodd" stroke="#000000" stroke-opacity="0" stroke-width="0" stroke-linecap="square" stroke-linejoin="bevel" d="M0.0357055 8.54429C3.20067 10.0008 9.96657 9.20303 10.8524 8.47639C10.9379 8.32801 12.0737 1.53789 6.19304 0C1.75085 0.0608321 -0.301591 2.90893 0.0357055 8.54429Z"/><path id="shape10" transform="matrix(1.20079694535497 0 0 1.20079694535497 47.3856031970681 32.489849132434)" fill="#8121a6" fill-rule="evenodd" stroke="#000000" stroke-opacity="0" stroke-width="0" stroke-linecap="square" stroke-linejoin="bevel" d="M4.10763 7.32348C5.62636 6.89906 6.94038 6.82197 7.32998 4.10113C7.0748 2.08167 7.13452 0.154669 3.80513 0.00544898C1.52884 -0.122701 0.03007 2.03481 0 3.81058C0.126057 6.22468 1.49527 7.39565 4.10763 7.32348Z"/><path id="shape11" transform="matrix(1.20079694535497 -0.0910101066125844 5.88201427572882e-16 1.20079694535497 37.4975712569304 7.49987258418851)" fill="#8121a6" fill-rule="evenodd" stroke="#000000" stroke-opacity="0" stroke-width="0" stroke-linecap="square" stroke-linejoin="bevel" d="M4.66775 12.4145L8.63819 12.4145L8.63819 10.4135C10.3111 9.65401 11.9791 8.88252 12.115 4.39149C11.8422 3.71362 11.2017 0.0262916 5.79181 0C2.64984 0.0219156 0.136458 2.27913 0 5.96435C0.726244 8.35494 1.44997 10.5662 4.35311 10.707C4.35456 10.7235 4.45944 11.2926 4.66775 12.4145Z"/><path id="shape12" transform="matrix(1.20079694535497 -0.0910101066125844 5.88201427572882e-16 1.20079694535497 43.0356036563301 23.0691600949642)" fill="none" stroke="#8121a6" stroke-width="1.2" stroke-linecap="round" stroke-linejoin="bevel" d="M0 0L3.99948 0"/><path id="shape13" transform="matrix(1.20079694535497 -0.0910101066125844 5.88201427572882e-16 1.20079694535497 43.0971144844798 24.7136303695549)" fill="none" stroke="#8121a6" stroke-width="1.2" stroke-linecap="round" stroke-linejoin="bevel" d="M0 0L3.93664 0"/><path id="shape14" transform="matrix(1.20079694535497 0 0 1.20079694535497 25.7037228755695 24.3761849770233)" fill="#4c0c79" fill-rule="evenodd" stroke="#000000" stroke-opacity="0" stroke-width="0" stroke-linecap="square" stroke-linejoin="bevel" d="M2.9133 7.4016C3.48868 6.49208 3.93399 5.40641 3.78505 3.96321C3.44177 2.05648 2.77311 1.38552 1.9703 0.735177C0.888047 0.116332 1.1896 0.327739 0 0C0.73671 0.354034 1.40164 0.624317 1.67998 0.969935C2.70445 1.88824 2.91888 2.19087 3.42168 4.06426C3.46917 5.01781 3.29971 6.13025 2.9133 7.4016Z"/><path id="shape15" transform="matrix(1.20079694535497 0 0 1.20079694535497 47.0196363492033 46.4485961339074)" fill="#4c0c79" fill-rule="evenodd" stroke="#000000" stroke-opacity="0" stroke-width="0" stroke-linecap="square" stroke-linejoin="bevel" d="M0 0.13005C0.955749 -0.0115087 1.43732 -0.0641041 2.71734 0.109365C3.61096 0.407397 4.4875 0.769444 5.24133 1.59179C5.48056 2.09209 5.58137 2.33849 5.75998 3.3164C5.78078 4.20962 5.76686 4.63375 5.67162 5.15396C5.59945 4.51006 5.48463 4.10045 5.38284 3.63603C5.25692 3.02458 5.05179 2.43251 4.80637 1.84363C4.13993 1.17216 4.11628 1.09092 2.60176 0.420841C1.71693 0.249972 0.84968 0.153042 0 0.13005Z"/><path id="shape16" transform="matrix(1.20079694535497 0 0 1.20079694535497 12.1681296061418 40.2727301944977)" fill="#4d0d7a" fill-rule="evenodd" stroke="#000000" stroke-opacity="0" stroke-width="0" stroke-linecap="square" stroke-linejoin="bevel" d="M0.121464 0C-0.00565274 0.469401 -0.0275819 0.973286 0.0305394 1.20282C0.179729 1.57177 0.402823 1.80866 0.746409 1.83021C1.08174 1.87849 1.33893 1.84456 1.68319 1.69694C1.40948 1.66813 1.14905 1.70717 0.855082 1.5818C0.604479 1.46504 0.375546 1.31726 0.268392 0.995107C0.223443 1.03769 0.174467 0.70599 0.121464 0Z"/><path id="shape17" transform="matrix(1.20079694535497 0 0 1.20079694535497 8.67720521438956 43.1841831260195)" fill="#4d0d7a" fill-rule="evenodd" stroke="#000000" stroke-opacity="0" stroke-width="0" stroke-linecap="square" stroke-linejoin="bevel" d="M0 1.51469C0.166547 1.47953 0.32378 1.48378 0.464203 1.36038C0.534628 1.31375 0.531655 1.10661 0.585222 0.953788C1.18339 0.504477 1.32858 0.331003 2.12902 0C2.3547 0.102541 2.65164 0.522177 2.75908 0.643765C2.64088 0.584361 2.39662 0.401202 2.24619 0.416753C1.71267 0.580063 1.3449 0.810637 0.918185 1.18758C0.92081 1.34849 0.780837 1.58132 0.675506 1.6608C0.519868 1.60615 0.294699 1.55745 0 1.51469Z"/><path id="shape18" transform="matrix(1.20079694535497 0 0 1.20079694535497 11.2611561380586 44.5081690589198)" fill="#4d0d7a" fill-rule="evenodd" stroke="#000000" stroke-opacity="0" stroke-width="0" stroke-linecap="square" stroke-linejoin="bevel" d="M0 2.00071C0.352912 1.87978 0.579809 1.81544 0.676437 1.58423C0.755679 1.36949 0.813041 1.23876 0.830379 1.09548C1.06573 0.558323 1.14166 0.40395 1.37957 0C1.73853 0.0810761 1.82406 0.291258 1.91748 0.497718C1.76078 0.407461 1.60082 0.348563 1.47512 0.411467C1.30035 0.653464 1.1976 0.95869 1.08438 1.21807C1.05154 1.47343 1.00684 1.68365 0.897842 1.78588C0.763849 1.88012 0.464569 1.95173 0 2.00071Z"/><path id="shape19" transform="matrix(1.20079694535497 0 0 1.20079694535497 34.4624804015762 34.634669574213)" fill="#4d0d7a" fill-rule="evenodd" stroke="#000000" stroke-opacity="0" stroke-width="0" stroke-linecap="square" stroke-linejoin="bevel" d="M0 4.03106C0.465392 3.95386 0.96306 3.94589 1.33712 3.67278C1.44268 3.2821 1.32844 2.99014 1.33712 2.63928C1.35667 2.33018 1.49462 2.20702 1.67678 2.05097L1.79249 1.85055C1.83445 1.58572 1.81433 1.37666 1.79249 1.16913C1.6608 0.702056 1.49659 0.405573 1.25157 0C1.40705 0.466788 1.49233 0.748845 1.5565 1.13799C1.61293 1.34152 1.63794 1.53878 1.5565 1.71481C1.32204 1.93384 1.17529 2.22324 1.07455 2.54956C1.13504 2.96322 1.22105 3.41406 1.07455 3.52621C0.714498 3.79718 0.356314 3.96546 0 4.03106Z"/><path id="shape20" transform="matrix(1.20079694535497 0 0 1.20079694535497 25.7155181573664 3.58674398445178)" fill="#8121a6" fill-rule="evenodd" stroke="#000000" stroke-opacity="0" stroke-width="0" stroke-linecap="square" stroke-linejoin="bevel" d="M13.3997 0L1.37592 1.40612C0.459594 1.51178 0.110109 2.0546 3.55271e-15 2.78203L0 17.3669C0.541951 17.399 0.803709 17.5312 1.1835 17.684C0.924599 17.4962 0.734292 17.2648 0.311927 17.1808L0.311927 3.0345C0.477281 2.43724 0.66079 1.85089 1.61701 1.72942C1.60158 1.67798 5.52915 1.10151 13.3997 0Z"/><path id="shape21" transform="matrix(1.20079694535497 0 0 1.20079694535497 35.0844463420524 42.4006006564169)" fill="#4d0d7a" fill-rule="evenodd" stroke="#000000" stroke-opacity="0" stroke-width="0" stroke-linecap="square" stroke-linejoin="bevel" d="M3.41232 2.05338C3.21467 2.38957 2.80902 2.49121 2.21052 2.3754C1.86375 2.08231 1.80237 1.8407 1.68553 1.46608C1.24628 0.925584 1.02217 0.721129 0.618781 0.399337C0.517796 0.326883 0.42763 0.277261 0.343516 0.240412C0.193958 0.282807 0.110143 0.369681 0 0.438741C0.0494365 0.249829 0.0761344 0.111097 0.438741 0C0.570669 0.0370912 0.642638 0.0849352 0.769455 0.190937C1.36935 0.561777 1.58251 0.7883 1.93641 1.22834L2.36654 2.00739C2.67367 2.09208 3.02226 2.10741 3.41232 2.05338Z"/><path id="shape22" transform="matrix(1.20079694535497 0 0 1.20079694535497 36.5121195644272 39.4950534453767)" fill="#4d0d7a" fill-rule="evenodd" stroke="#000000" stroke-opacity="0" stroke-width="0" stroke-linecap="square" stroke-linejoin="bevel" d="M3.50497 1.42633C3.29165 1.69226 2.95767 1.748 2.55342 1.68129C2.05099 1.36304 1.83206 1.02874 1.537 0.637677C1.26073 0.518989 1.06005 0.391603 0.688415 0.348356C0.424483 0.322125 0.377794 0.353076 0.24486 0.392731C0.138825 0.527223 0.0785317 0.674601 0 0.816842C0.014148 0.551233 -0.0254547 0.289498 0.216877 0.0074471C0.905218 -0.0397234 1.31248 0.143621 1.59075 0.375574C1.928 0.761444 2.24429 1.03528 2.56894 1.35377C2.86833 1.48652 3.18034 1.51071 3.50497 1.42633Z"/><path id="shape23" transform="matrix(1.20079694535497 0 0 1.20079694535497 42.4003678882078 13.622226860641)" fill="none" stroke="#4d0d7a" stroke-width="0.48" stroke-linecap="square" stroke-linejoin="bevel" d="M1.70886 5.94551L1.70886 0.796843C1.27378 0.347144 0.925416 0.426402 0.574979 0.49302C0.232807 0.700454 0.04882 0.839515 0.00187931 1.26051C-0.00943698 1.56037 0.028625 1.69424 0.163269 1.86282C1.64103 2.32387 3.06171 2.07355 4.29735 1.59865C4.57326 1.45943 4.80525 1.28454 4.8988 0.997196C4.71602 0.39646 4.34946 0.125777 3.90199 0.000387173C3.50519 -0.00858052 3.24425 0.137903 3.08108 0.47434L3.08108 5.90171"/>
</svg>
